<?xml version="1.0" encoding="utf-8"?>
<!-- Generator: Adobe Illustrator 16.0.0, SVG Export Plug-In . SVG Version: 6.00 Build 0)  -->
<!DOCTYPE svg PUBLIC "-//W3C//DTD SVG 1.1//EN" "http://www.w3.org/Graphics/SVG/1.1/DTD/svg11.dtd">
<svg version="1.1" id="Logo-white_1_" xmlns="http://www.w3.org/2000/svg" xmlns:xlink="http://www.w3.org/1999/xlink" x="0px"
	 y="0px" width="140px" height="80px" viewBox="0 0 140 80" style="enable-background:new 0 0 140 80;" xml:space="preserve">
<style type="text/css">
<![CDATA[
	.st0{fill-rule:evenodd;clip-rule:evenodd;fill:#FFFFFF;}
]]>
</style>
<g id="Logo-white">
	<g>
		<path class="st0" d="M31.4,30.2c0-0.6-0.1-1.1-0.2-1.7h-7.3l3.3-3.6c1-1.1,1.8-2.1,2.4-3c0.8-1.2,1.2-2.5,1.2-4
			c0-1.6-0.4-2.8-1.3-3.8c-1-1.1-2.6-1.6-4.7-1.6c-1.9,0-3.5,0.3-5.1,1c0.2,1.3,0.5,2.4,0.9,3.2c1.3-0.7,2.6-1,3.8-1
			c1.7,0,2.5,0.7,2.5,2.2c0,1.2-0.9,2.8-2.6,4.7l-5.2,6v3.1h12C31.4,31.3,31.4,30.7,31.4,30.2z M44.2,13.7c-1.1-0.8-2.4-1.2-3.9-1.2
			c-2.5,0-4.3,0.9-5.4,2.7c-0.9,1.5-1.3,3.9-1.3,7.1c0,2.9,0.4,5.1,1.1,6.6c1,2.1,2.9,3.2,5.5,3.2c2.5,0,4.2-0.9,5.3-2.7
			c0.9-1.5,1.3-3.9,1.3-7.1C46.9,17.9,46,15.1,44.2,13.7z M42.6,27c-0.4,1.3-1.2,1.9-2.4,1.9c-1.1,0-1.9-0.5-2.3-1.6
			c-0.4-1-0.5-2.6-0.5-5c0-2.1,0.1-3.7,0.4-4.6c0.4-1.3,1.2-1.9,2.4-1.9c1.1,0,1.8,0.5,2.2,1.6c0.4,0.9,0.5,2.6,0.5,5
			C43,24.5,42.9,26,42.6,27z M20.7,37c-0.4,0-0.6-0.1-0.6-0.4c0-0.1,0.1-0.3,0.2-0.3c0.1-0.1,0.3-0.2,0.6-0.4
			c0.4-0.2,0.7-0.4,0.8-0.6c0.2-0.2,0.3-0.5,0.3-0.8c0-0.4-0.1-0.7-0.4-1c-0.3-0.2-0.6-0.3-1.1-0.3c-0.4,0-0.9,0.1-1.3,0.2l0.2,0.9
			c0.3-0.1,0.6-0.2,0.9-0.2c0.2,0,0.3,0,0.4,0.1c0.1,0.1,0.1,0.2,0.1,0.3c0,0.1,0,0.2-0.1,0.2c-0.1,0.1-0.2,0.2-0.3,0.2
			c-0.6,0.3-0.9,0.5-1.1,0.6c-0.3,0.3-0.5,0.6-0.5,1c0,0.9,0.6,1.3,1.7,1.3c0.6,0,1.1-0.1,1.6-0.3L22,36.7
			C21.6,36.9,21.1,37,20.7,37z M26.1,33.5c-0.3-0.2-0.7-0.3-1.1-0.3c-1.4,0-2.2,0.8-2.2,2.3c0,0.7,0.2,1.3,0.5,1.7
			c0.4,0.4,0.9,0.6,1.6,0.6s1.3-0.2,1.6-0.6c0.3-0.4,0.5-1,0.5-1.7C27.1,34.5,26.7,33.9,26.1,33.5z M25.6,36.7
			c-0.1,0.2-0.3,0.3-0.6,0.3c-0.3,0-0.5-0.1-0.6-0.2c-0.2-0.2-0.2-0.6-0.2-1.1c0-0.6,0.1-1.1,0.3-1.3c0.1-0.1,0.3-0.2,0.6-0.2
			c0.3,0,0.6,0.1,0.7,0.4c0.1,0.2,0.2,0.6,0.2,1C25.8,36.1,25.7,36.5,25.6,36.7z M29.7,33.2c-0.6,0-1.1,0.2-1.4,0.5
			c-0.4,0.4-0.6,0.9-0.6,1.7c0,1.3,0.6,2,1.8,2c0.4,0,0.7-0.1,1-0.3v0.2c0,0.3-0.1,0.5-0.2,0.7c-0.2,0.2-0.5,0.4-1,0.4
			c-0.4,0-0.8-0.1-1.2-0.3L28,39c0.6,0.2,1.1,0.3,1.7,0.3c0.5,0,0.8-0.1,1.1-0.2c0.4-0.2,0.7-0.5,0.8-0.9c0.1-0.2,0.1-0.3,0.1-0.5
			c0-0.1,0-0.4,0-0.8l0-1.4c0-0.3,0-0.6-0.1-0.8c0-0.2-0.1-0.3-0.2-0.5l0.6,0.1l0.1-1l-1.4,0.1C30.5,33.3,30.1,33.2,29.7,33.2z
			 M30.6,36.2c-0.2,0.2-0.5,0.3-0.8,0.3c-0.3,0-0.5-0.1-0.6-0.2c-0.2-0.1-0.3-0.5-0.3-1c0-0.4,0-0.6,0.1-0.8
			c0.1-0.2,0.3-0.4,0.7-0.4c0.4,0,0.6,0.2,0.7,0.5c0.1,0.2,0.1,0.5,0.1,0.8V36.2z M35.4,36.5c-0.2,0.3-0.5,0.4-0.8,0.4
			c-0.2,0-0.4-0.1-0.5-0.3c0-0.1-0.1-0.4-0.1-0.8v-2.4h-1.2v2.7c0,0.6,0.1,1,0.2,1.2c0.2,0.4,0.6,0.6,1.1,0.6c0.4,0,0.7-0.1,1-0.3
			c0.1-0.1,0.2-0.2,0.3-0.3l0.2,0.5h0.9v-4.4h-1.2V36.5z M40.4,35H39v-1.6h-1.2v4.4H39v-1.8h1.4v1.8h1.2v-4.4h-1.2V35z M45.3,36.5
			c-0.2,0.3-0.5,0.4-0.8,0.4c-0.2,0-0.4-0.1-0.5-0.3c0-0.1-0.1-0.4-0.1-0.8v-2.4h-1.2v2.7c0,0.6,0.1,1,0.2,1.2
			c0.2,0.4,0.6,0.6,1.1,0.6c0.4,0,0.7-0.1,1-0.3c0.1-0.1,0.2-0.2,0.3-0.3l0.2,0.5h0.9v-4.4h-1.2V36.5z M52,43h1V8h-1V43z
			 M102.5,14.8c-2.9-2.7-5.4-4.7-8.6-4.7c-3.1,0-5.7,2-8.9,5.1c-3.2-3.2-5.8-5.1-8.9-5.1c-3.2,0-5.6,2.1-8.6,4.7
			c-1.2,1.1-5.2,5-7.6,9.4c-1.2,2.2-1.7,3.7-1.6,5.1c0,1.1,0.4,2.1,1.2,2.9l8.1,8.1l0.2,0.2c0.8,0.8,1.9,1.2,3.1,1.2
			c0.4,0,0.7,0,1.1-0.1c1.7-0.3,3.4-1.4,5-3l7.9-7.9l7.9,7.9c1.6,1.6,3.4,2.6,5,3c0.4,0.1,0.8,0.1,1.1,0.1c1.2,0,2.3-0.4,3.1-1.2
			l0.2-0.2l8.1-8.1c0.8-0.8,1.2-1.8,1.2-2.9c0-1.3-0.5-2.9-1.6-5.1C107.7,19.8,103.7,15.9,102.5,14.8z M86.7,22.4l0.6,0.6l-0.6,0.6
			L86.2,23L86.7,22.4z M86.2,19.6l0.6-0.6l0.6,0.6l-0.6,0.6L86.2,19.6z M87.3,26.3l-0.6,0.6l-0.6-0.6l0.6-0.6L87.3,26.3z M85.1,17.4
			l0.6,0.6l-0.6,0.6L84.5,18L85.1,17.4z M59.9,29.7C59.9,29.7,59.9,29.7,59.9,29.7c-0.1-1.2,0.3-2.9,1.3-4.7c1.9-3.5,5.5-7.3,7.4-9
			c3.1-2.8,5.1-4.3,7.6-4.3c2.7,0,5,1.8,7.8,4.6l-0.6,0.6c-2.6-2.6-4.7-4.1-7.3-4.1c-2.4,0-4.3,1.4-7.1,3.9
			c-1.6,1.4-5.5,5.6-7.3,8.7C60.7,27.1,60.2,28.5,59.9,29.7C60,29.7,60,29.7,59.9,29.7z M84,19.6l-0.6,0.6l-0.6-0.6l0.6-0.6L84,19.6
			z M81.7,24.1l0.6,0.6l-0.6,0.6l-0.6-0.6L81.7,24.1z M81.2,21.3l0.6-0.6l0.6,0.6l-0.6,0.6L81.2,21.3z M61.5,30.5
			C61.5,30.5,61.5,30.5,61.5,30.5c0-1.1,0.5-2.8,1.5-4.4c1.6-2.7,5.6-7,7.1-8.3c2.4-2.2,4.1-3.4,6.1-3.4c2.1,0,3.9,1.4,6.2,3.6
			l-0.6,0.6c-1.9-1.9-3.6-3.2-5.6-3.2c-1.9,0-3.6,1.2-5.6,3.1c-1.2,1.2-5.7,5.8-7,8C62.5,28,61.8,29.3,61.5,30.5
			C61.6,30.5,61.5,30.5,61.5,30.5z M63.1,31.3C63,31.3,63,31.3,63.1,31.3c0-1.1,0.6-2.6,1.6-4.1l0,0c1.1-1.8,5.6-6.5,6.8-7.6
			c1.7-1.5,3.1-2.6,4.6-2.6c1.4,0,2.7,0.7,4.5,2.6l-0.6,0.6c-1.3-1.3-2.6-2.2-4-2.2c-1.2,0-2.5,0.7-4.1,2.2c-0.9,0.9-5.8,6-6.7,7.3
			C64.3,28.8,63.5,30.1,63.1,31.3C63.1,31.3,63.1,31.3,63.1,31.3z M80.6,23l-0.6,0.6L79.5,23l0.6-0.6L80.6,23z M64.6,32.2
			C64.6,32.2,64.6,32.1,64.6,32.2c0.1-1,0.8-2.4,1.8-3.8c0.6-0.8,5.5-5.9,6.5-6.9c1.2-1.2,2.2-1.7,3.1-1.7c0.9,0,1.7,0.5,2.9,1.6
			l-0.6,0.6c-0.9-0.8-1.6-1.2-2.4-1.2c-0.8,0-1.7,0.5-2.6,1.4c-0.5,0.5-6.3,6.4-6.4,6.5C66.1,29.6,65.2,30.9,64.6,32.2
			C64.7,32.1,64.7,32.2,64.6,32.2z M68.2,29.5c0.1-0.1,5.6-5.6,6.3-6.3c0.6-0.6,1.2-0.9,1.6-0.9c0.4,0,0.8,0.2,1.3,0.6l-7.9,7.9
			c-0.9,0.9-2,1.6-3.1,2C66.6,31.6,67.2,30.5,68.2,29.5z M67.2,34.7C67.1,34.7,67.1,34.7,67.2,34.7c-0.1-0.1-0.1-0.1,0-0.1
			c1.1-0.5,2.1-1.4,3.4-2.6l7.9-7.9l0.6,0.6L71,32.6C69.9,33.6,67.9,34.7,67.2,34.7z M68,36.5C68,36.4,68,36.4,68,36.5
			c1.4-0.5,2.7-1.4,4.1-2.8l7.9-7.9l0.6,0.6l-7.9,7.9C71.5,35.5,69.3,36.5,68,36.5C68,36.5,68,36.5,68,36.5z M68.9,38.2
			C68.9,38.2,68.9,38.1,68.9,38.2c1.6-0.4,3.2-1.2,4.9-2.9l7.9-7.9l0.6,0.6l-7.9,7.9C73,37.3,70.7,38.3,68.9,38.2
			C68.9,38.3,68.9,38.2,68.9,38.2z M76,37.5c-1.5,1.5-3.9,2.6-6.1,2.5c0,0-0.1,0-0.1-0.1c0,0,0-0.1,0.1-0.1c1.8-0.2,3.7-1.1,5.6-2.9
			l7.9-7.9l0.6,0.6L76,37.5z M83.4,26.9l-0.6-0.6l0.6-0.6l0.6,0.6L83.4,26.9z M83.4,23.5L82.8,23l0.6-0.6L84,23L83.4,23.5z
			 M85.1,28.5L84.5,28l0.6-0.6l0.6,0.6L85.1,28.5z M84.5,24.6l0.6-0.6l0.6,0.6l-0.6,0.6L84.5,24.6z M85.1,21.9l-0.6-0.6l0.6-0.6
			l0.6,0.6L85.1,21.9z M100.2,40c-2.3,0.1-4.6-0.9-6.1-2.5l-7.9-7.9l0.6-0.6l7.9,7.9c1.8,1.8,3.8,2.7,5.6,2.9
			C100.3,39.9,100.3,39.9,100.2,40C100.3,40,100.3,40,100.2,40z M88.4,24.1l0.6,0.6l-0.6,0.6l-0.6-0.6L88.4,24.1z M87.8,21.3
			l0.6-0.6l0.6,0.6l-0.6,0.6L87.8,21.3z M101.1,38.3c-1.8,0.1-4-1-5.4-2.4L87.8,28l0.6-0.6l7.9,7.9c1.6,1.6,3.3,2.5,4.8,2.8
			C101.2,38.1,101.2,38.2,101.1,38.3C101.2,38.2,101.2,38.3,101.1,38.3z M102,36.5c-1.2,0-3.4-1-4.6-2.3l-7.9-7.9l0.6-0.6l7.9,7.9
			c1.4,1.4,2.8,2.3,4.1,2.7C102.1,36.4,102.1,36.4,102,36.5C102.1,36.5,102.1,36.5,102,36.5z M89.5,23l0.6-0.6l0.6,0.6L90,23.5
			L89.5,23z M102.9,34.7c-0.7-0.1-2.8-1.1-3.9-2.2l-7.9-7.9l0.6-0.6l7.9,7.9c1.2,1.2,2.3,2.1,3.4,2.6C103,34.6,103,34.7,102.9,34.7
			C103,34.7,103,34.7,102.9,34.7z M100.7,30.9L92.8,23c0.5-0.4,0.9-0.6,1.3-0.6c0.3,0,1,0.3,1.6,0.9c0.6,0.6,6.2,6.2,6.3,6.3
			c0.9,0.9,1.6,2,1.9,3.4C102.7,32.5,101.7,31.8,100.7,30.9z M105.5,32.2C105.4,32.2,105.4,32.1,105.5,32.2
			c-0.5-1.3-1.4-2.6-2.4-3.5c-0.1-0.1-5.8-6-6.4-6.5c-0.9-0.9-1.8-1.4-2.6-1.4c-0.8,0-1.5,0.3-2.4,1.2l-0.6-0.6
			c1.2-1.1,2-1.6,2.9-1.6c0.9,0,1.8,0.6,3.1,1.7c1,1,5.9,6.1,6.5,6.9C104.7,29.7,105.4,31.1,105.5,32.2
			C105.5,32.1,105.5,32.2,105.5,32.2z M107,31.3C107,31.3,107,31.3,107,31.3c-0.4-1.3-1.2-2.6-2.2-3.8c-0.9-1.2-5.8-6.4-6.7-7.3
			c-1.6-1.6-2.9-2.2-4.1-2.2c-1.5,0-2.7,0.9-4,2.2l-0.6-0.6c1.9-1.9,3.2-2.6,4.5-2.6c1.5,0,2.9,1,4.6,2.6c1.1,1.1,5.7,5.9,6.8,7.6v0
			C106.4,28.8,107,30.3,107,31.3C107.1,31.3,107.1,31.3,107,31.3z M108.6,30.5C108.6,30.5,108.5,30.5,108.6,30.5
			c-0.3-1.3-1-2.6-2-4.1c-1.3-2.2-5.8-6.8-7-8c-2-1.9-3.7-3.1-5.6-3.1c-2,0-3.7,1.3-5.6,3.2L87.8,18c2.2-2.2,4.1-3.6,6.2-3.6
			c2,0,3.7,1.2,6.1,3.4c1.4,1.3,5.5,5.6,7.1,8.3C108.1,27.8,108.6,29.4,108.6,30.5C108.7,30.5,108.6,30.5,108.6,30.5z M110.2,29.7
			C110.1,29.7,110.1,29.7,110.2,29.7c-0.2-1.3-0.8-2.6-1.8-4.4c-1.8-3.1-5.7-7.3-7.3-8.7c-2.7-2.5-4.7-3.9-7.1-3.9
			c-2.6,0-4.7,1.6-7.3,4.1l-0.6-0.6c2.8-2.8,5.1-4.6,7.8-4.6c2.5,0,4.5,1.4,7.6,4.3c1.8,1.7,5.4,5.5,7.4,9
			C109.9,26.8,110.2,28.5,110.2,29.7C110.2,29.7,110.2,29.7,110.2,29.7z M119,20.4c-1.2,0-1.8-0.6-1.8-2.9v-3.2l2.2-0.4
			c0.8-0.2,1.1-0.5,1.1-1.4v-0.7h-3.3v-1.7c-0.2-0.2-0.7-0.4-1.4-0.4s-1.2,0.2-1.4,0.4V18c0,3,1.1,4.7,4.1,4.7c1.2,0,2.4-0.4,3.3-1
			l-0.9-1.9C120,20.3,119.6,20.4,119,20.4z M139.1,19.8c-1,0.5-1.4,0.6-2,0.6c-1.2,0-1.8-0.6-1.8-2.9v-7.4c-0.2-0.2-0.7-0.4-1.4-0.4
			s-1.2,0.2-1.4,0.4V18c0,3,1.1,4.7,4.1,4.7c1.2,0,2.4-0.4,3.3-1L139.1,19.8z M127.6,20.4c-1.3,0-2.2-0.4-2.5-1.5c3.3,0.1,6-0.6,6-4
			c0-2.1-1-3.3-4.2-3.3c-3.5,0-4.8,1.7-4.8,5.5c0,4.5,2.1,5.7,5.1,5.7c1.7,0,3.3-0.4,4.4-1.1l-0.9-2
			C129.7,20.1,128.5,20.4,127.6,20.4z M124.9,17.1c0-2.4,0.5-3,2-3c1.2,0,1.4,0.5,1.4,1c0,1.1-0.3,1.6-3.4,2.6
			C124.9,17.4,124.9,17.3,124.9,17.1z"/>
	</g>
</g>
</svg>
